<?xml version="1.0" encoding="UTF-8"?>
<svg xmlns="http://www.w3.org/2000/svg" xmlns:xlink="http://www.w3.org/1999/xlink" width="300px" height="300px" viewBox="0 0 300 300" version="1.1">
<g id="surface1">
<path style=" stroke:none;fill-rule:nonzero;fill:rgb(98.823529%,75.686275%,0%);fill-opacity:1;" d="M 35 40 C 96.050781 40 157.101562 40 220 40 C 220 56.5 220 73 220 90 C 233.199219 90 246.398438 90 260 90 C 260 149.398438 260 208.800781 260 270 C 200.601562 270 141.199219 270 80 270 C 80 253.5 80 237 80 220 C 65.148438 220 50.300781 220 35 220 C 35 160.601562 35 101.199219 35 40 Z M 35 40 "/>
<path style=" stroke:none;fill-rule:nonzero;fill:rgb(83.137255%,38.823529%,0%);fill-opacity:1;" d="M 215 50 C 216.648438 50 218.300781 50 220 50 C 220 63.199219 220 76.398438 220 90 C 233.199219 90 246.398438 90 260 90 C 260 149.398438 260 208.800781 260 270 C 200.601562 270 141.199219 270 80 270 C 80 253.5 80 237 80 220 C 65.148438 220 50.300781 220 35 220 C 35 216.699219 35 213.398438 35 210 C 94.398438 210 153.800781 210 215 210 C 215 157.199219 215 104.398438 215 50 Z M 215 50 "/>
<path style=" stroke:none;fill-rule:nonzero;fill:rgb(94.117647%,50.588235%,0%);fill-opacity:1;" d="M 100 110 C 112.773438 122.203125 121.261719 134.605469 130 150 C 146.390625 146.242188 146.390625 146.242188 155 130 C 173.929688 136.308594 176.089844 142.742188 185.9375 159.6875 C 188.585938 164.167969 191.234375 168.648438 193.964844 173.261719 C 200 185 200 185 200 195 C 152.148438 195 104.300781 195 55 195 C 60.210938 174.152344 68.964844 159.085938 80.3125 141.25 C 82.199219 138.238281 84.082031 135.230469 86.023438 132.128906 C 90.660156 124.738281 95.328125 117.367188 100 110 Z M 100 110 "/>
<path style=" stroke:none;fill-rule:nonzero;fill:rgb(62.745098%,26.666667%,0%);fill-opacity:1;" d="M 155 130 C 174.101562 136.367188 176.152344 143.132812 185.9375 160.3125 C 188.585938 164.90625 191.234375 169.503906 193.964844 174.238281 C 195.957031 177.789062 197.949219 181.339844 200 185 C 191.878906 185.40625 183.753906 185.695312 175.625 185.9375 C 168.839844 186.199219 168.839844 186.199219 161.914062 186.464844 C 156.015625 185.738281 156.015625 185.738281 150 185 C 140 170 140 170 141.25 157.5 C 145 145 145 145 155 130 Z M 155 130 "/>
<path style=" stroke:none;fill-rule:nonzero;fill:rgb(99.607843%,98.039216%,93.72549%);fill-opacity:1;" d="M 155 70 C 161.601562 70 168.199219 70 175 70 C 176.648438 78.25 178.300781 86.5 180 95 C 171.75 96.648438 163.5 98.300781 155 100 C 153.089844 91.71875 151.429688 83.378906 150 75 C 151.648438 73.351562 153.300781 71.699219 155 70 Z M 155 70 "/>
</g>
</svg>
