<?xml version="1.0" encoding="UTF-8"?>
<svg version="1.1" xmlns="http://www.w3.org/2000/svg" width="60" height="60">
<path d="M0 0 C12.21 0 24.42 0 37 0 C37 3.3 37 6.6 37 10 C39.64 10 42.28 10 45 10 C45 21.88 45 33.76 45 46 C33.12 46 21.24 46 9 46 C9 42.7 9 39.4 9 36 C6.03 36 3.06 36 0 36 C0 24.12 0 12.24 0 0 Z " fill="#FCC100" transform="translate(7,8)"/>
<path d="M0 0 C0.33 0 0.66 0 1 0 C1 2.64 1 5.28 1 8 C3.64 8 6.28 8 9 8 C9 19.88 9 31.76 9 44 C-2.88 44 -14.76 44 -27 44 C-27 40.7 -27 37.4 -27 34 C-29.97 34 -32.94 34 -36 34 C-36 33.34 -36 32.68 -36 32 C-24.12 32 -12.24 32 0 32 C0 21.44 0 10.88 0 0 Z " fill="#D46300" transform="translate(43,10)"/>
<path d="M0 0 C2.55489105 2.44038613 4.25254702 4.92115427 6 8 C9.27773504 7.24849977 9.27773504 7.24849977 11 4 C14.78570414 5.26190138 15.21831571 6.54855815 17.1875 9.9375 C17.71730469 10.83339844 18.24710938 11.72929688 18.79296875 12.65234375 C20 15 20 15 20 17 C10.43 17 0.86 17 -9 17 C-7.95754814 12.83019255 -6.20737483 9.81750621 -3.9375 6.25 C-3.56044922 5.64800781 -3.18339844 5.04601562 -2.79492188 4.42578125 C-1.86806837 2.94750857 -0.93467611 1.47333911 0 0 Z " fill="#F08100" transform="translate(20,22)"/>
<path d="M0 0 C3.82053924 1.27351308 4.23021375 2.62637525 6.1875 6.0625 C6.71730469 6.98160156 7.24710938 7.90070312 7.79296875 8.84765625 C8.19128906 9.55792969 8.58960938 10.26820312 9 11 C7.37581255 11.08090971 5.75048255 11.13914995 4.125 11.1875 C2.76761719 11.23970703 2.76761719 11.23970703 1.3828125 11.29296875 C0.20332031 11.14794922 0.20332031 11.14794922 -1 11 C-3 8 -3 8 -2.75 5.5 C-2 3 -2 3 0 0 Z " fill="#A04400" transform="translate(31,26)"/>
<path d="M0 0 C1.32 0 2.64 0 4 0 C4.33 1.65 4.66 3.3 5 5 C3.35 5.33 1.7 5.66 0 6 C-0.38218767 4.34385343 -0.71395102 2.67542976 -1 1 C-0.67 0.67 -0.34 0.34 0 0 Z " fill="#FEFAEF" transform="translate(31,14)"/>
</svg>
